<?xml version="1.0" encoding="UTF-8"?>
<svg width="487px" height="134px" viewBox="0 0 487 134" version="1.1" xmlns="http://www.w3.org/2000/svg" xmlns:xlink="http://www.w3.org/1999/xlink">
    <!-- Generator: Sketch 58 (84663) - https://sketch.com -->
    <title>Artboard</title>
    <desc>Created with Sketch.</desc>
    <g id="Artboard" stroke="none" stroke-width="1" fill="none" fill-rule="evenodd">
        <g id="logo-horizontal-fondo-oscuro">
            <rect id="Rectangle" x="0" y="0.95" width="486.6" height="132.7"></rect>
            <g id="Group" transform="translate(36.000000, 34.000000)" fill-rule="nonzero">
                <g transform="translate(261.000000, 25.000000)" fill="#869FB2">
                    <path d="M17.3,16.85 C17.3,21.75 13.8,25.25 9.2,25.25 C6.5,25.25 4.6,24.15 3.3,22.55 L3.3,24.95 L0.7,24.95 L0.7,0.25 L3.3,0.25 L3.3,11.15 C4.6,9.55 6.5,8.45 9.2,8.45 C13.8,8.45 17.3,11.95 17.3,16.85 Z M3.1,16.85 C3.1,20.25 5.5,22.85 8.9,22.85 C12.4,22.85 14.7,20.15 14.7,16.85 C14.7,13.55 12.4,10.85 8.9,10.85 C5.5,10.85 3.1,13.45 3.1,16.85 Z" id="Shape"></path>
                    <polygon id="Path" points="22.3 31.95 19.5 31.95 25.5 21.55 18 8.85 20.9 8.85 26.9 19.05 32.6 8.85 35.4 8.85"></polygon>
                    <polygon id="Path" points="61.8 14.25 48.6 14.25 48.6 25.05 45.8 25.05 45.8 1.05 62.4 1.05 62.4 3.65 48.6 3.65 48.6 11.65 61.8 11.65"></polygon>
                    <path d="M75.5,8.95 L74.9,11.45 C74.1,11.05 73,10.75 72.1,10.75 C69.6,10.75 67.7,12.75 67.7,15.85 L67.7,24.95 L65.2,24.95 L65.2,8.75 L67.7,8.75 L67.7,11.05 C68.8,9.35 70.5,8.45 72.5,8.45 C73.7,8.45 74.6,8.55 75.5,8.95 Z" id="Path"></path>
                    <path d="M92.3,16.85 C92.3,17.15 92.3,17.55 92.2,17.85 L79.2,17.85 C79.6,21.35 82,23.15 84.9,23.15 C86.9,23.15 88.7,22.35 90,21.15 L91.4,22.85 C89.4,24.75 87.1,25.35 84.7,25.35 C79.9,25.35 76.5,21.95 76.5,16.95 C76.5,11.95 79.9,8.55 84.6,8.55 C89.1,8.45 92.3,11.85 92.3,16.85 Z M79.3,15.65 L89.7,15.65 C89.4,12.65 87.4,10.65 84.6,10.65 C81.6,10.75 79.7,12.75 79.3,15.65 Z" id="Shape"></path>
                    <path d="M110.6,16.85 C110.6,17.15 110.6,17.55 110.5,17.85 L97.5,17.85 C97.9,21.35 100.3,23.15 103.2,23.15 C105.2,23.15 107,22.35 108.3,21.15 L109.7,22.85 C107.7,24.75 105.4,25.35 103,25.35 C98.2,25.35 94.8,21.95 94.8,16.95 C94.8,11.95 98.2,8.55 102.9,8.55 C107.4,8.45 110.6,11.85 110.6,16.85 Z M97.6,15.65 L108,15.65 C107.7,12.65 105.7,10.65 102.9,10.65 C100,10.75 98,12.75 97.6,15.65 Z" id="Shape"></path>
                    <path d="M130.3,16.85 C130.3,21.75 126.8,25.25 122.2,25.25 C119.5,25.25 117.6,24.15 116.3,22.55 L116.3,31.85 L113.7,31.85 L113.7,8.75 L116.3,8.75 L116.3,11.15 C117.6,9.55 119.5,8.45 122.2,8.45 C126.8,8.45 130.3,11.95 130.3,16.85 Z M116.1,16.85 C116.1,20.25 118.5,22.85 121.9,22.85 C125.4,22.85 127.7,20.15 127.7,16.85 C127.7,13.55 125.4,10.85 121.9,10.85 C118.5,10.85 116.1,13.45 116.1,16.85 Z" id="Shape"></path>
                    <path d="M136.3,3.05 C136.3,4.05 135.5,4.85 134.5,4.85 C133.5,4.85 132.7,4.05 132.7,3.05 C132.7,2.05 133.5,1.25 134.5,1.25 C135.5,1.15 136.3,1.95 136.3,3.05 Z M135.8,24.95 L133.2,24.95 L133.2,8.75 L135.8,8.75 L135.8,24.95 Z" id="Shape"></path>
                    <polygon id="Path" points="143.5 15.35 144.8 15.35 151.1 8.75 154.3 8.75 146.9 16.35 154.4 24.95 151.2 24.95 144.8 17.65 143.5 17.65 143.5 24.95 140.9 24.95 140.9 0.25 143.5 0.25 143.5 15.35"></polygon>
                </g>
                <path d="M76.5,26.95 L64.7,26.95 L64.7,37.05 C64.7,41.15 66.8,42.55 69.6,42.55 C71.7,42.55 74.1,41.35 75.9,40.35 L78.9,47.35 C76,49.25 72.8,50.75 68.1,50.75 C60,50.75 55.9,46.15 55.9,37.75 L55.9,26.95 L48.5,26.95 L51.8,19.15 L56,19.15 L56,7.65 L64.8,7.65 L64.8,19.15 L76.6,19.15 L76.6,26.95 L76.5,26.95 Z" id="Path" fill="#F8FAFB"></path>
                <path d="M117,33.65 C117,43.45 109.5,50.75 99.4,50.75 C89.3,50.75 81.8,43.45 81.8,33.65 C81.8,23.85 89.3,16.55 99.4,16.55 C109.5,16.55 117,23.85 117,33.65 Z M90.8,33.65 C90.8,38.95 94.5,42.65 99.4,42.65 C104.3,42.65 108.1,38.95 108.1,33.65 C108.1,28.35 104.4,24.65 99.4,24.65 C94.4,24.65 90.8,28.35 90.8,33.65 Z" id="Shape" fill="#F8FAFB"></path>
                <path d="M146.5,17.95 L143,25.95 C141.6,25.35 140.4,24.95 138.6,24.95 C134.5,24.95 131.7,27.45 131.7,32.25 L131.7,49.95 L122.9,49.95 L122.9,17.45 L131.4,17.45 L131.4,21.05 C133.4,17.95 136.6,16.65 140.6,16.65 C142.5,16.55 145.3,17.45 146.5,17.95 Z" id="Path" fill="#F8FAFB"></path>
                <path d="M160.5,6.75 C160.5,9.95 158,12.35 154.9,12.35 C151.7,12.35 149.3,9.95 149.3,6.75 C149.3,3.55 151.7,1.15 154.9,1.15 C158,1.15 160.5,3.55 160.5,6.75 Z" id="Path" fill="#F8FAFB"></path>
                <rect id="Rectangle" fill="#F8FAFB" x="150.5" y="17.45" width="8.8" height="32.5"></rect>
                <path d="M42.4,26.45 C39.8,25.15 35.7,23.85 32,23.75 C28.7,23.75 27,24.95 27,26.75 C27,28.65 29.4,29.15 32.3,29.55 L35.2,29.95 C42.3,31.05 46.2,34.15 46.2,39.65 C46.2,46.35 40.7,50.75 31.3,50.75 C26.9,50.75 21.1,49.95 16.8,46.95 L20.3,40.25 C23.1,42.05 26.5,43.45 31.4,43.45 C35.5,43.45 37.4,42.35 37.4,40.35 C37.4,38.75 35.8,37.85 32,37.35 L29.3,36.95 C21.8,35.95 18,32.65 18,27.05 C18,20.35 23.2,16.45 31.7,16.45 C36.9,16.45 41,17.45 45.3,19.55 L42.4,26.45 Z" id="Path" fill="#F8FAFB"></path>
                <path d="M7.5,22.45 L0.3,22.45 C0.3,10.55 10,0.95 21.8,0.95 L21.8,8.15 C14,8.15 7.5,14.55 7.5,22.45 Z" id="Path" fill="#1273EB"></path>
                <path d="M227,26.45 C224.4,25.15 220.3,23.85 216.6,23.75 C213.3,23.75 211.6,24.95 211.6,26.75 C211.6,28.65 214,29.15 216.9,29.55 L219.8,29.95 C226.9,31.05 230.8,34.15 230.8,39.65 C230.8,46.35 225.3,50.75 215.9,50.75 C211.5,50.75 205.7,49.95 201.4,46.95 L204.9,40.25 C207.7,42.05 211.1,43.45 216,43.45 C220.1,43.45 222,42.35 222,40.35 C222,38.75 220.4,37.85 216.6,37.35 L213.9,36.95 C206.4,35.95 202.6,32.65 202.6,27.05 C202.6,20.35 207.8,16.45 216.3,16.45 C221.5,16.45 225.6,17.45 229.9,19.55 L227,26.45 Z" id="Path" fill="#F8FAFB"></path>
                <path d="M241.8,43.95 L249,43.95 C249,55.85 239.3,65.45 227.5,65.45 L227.5,58.25 C235.4,58.35 241.8,51.95 241.8,43.95 Z" id="Path" fill="#1273EB"></path>
                <path d="M198.3,33.65 C198.3,23.55 191.9,16.55 182.5,16.55 C172.8,16.55 166,23.55 166,33.75 C166,43.95 172.9,50.75 182.9,50.75 C188.1,50.75 192.4,49.15 195.8,46.75 L192.8,39.85 C190.3,42.15 186.5,43.25 183.3,43.25 C179.2,43.25 175.9,41.25 174.9,36.45 L198,36.45 C198.3,35.85 198.3,34.65 198.3,33.65 Z M175.1,30.65 C175.9,26.65 178.3,24.15 182.4,24.15 C186.2,24.15 188.7,26.55 189.5,30.65 L175.1,30.65 Z" id="Shape" fill="#F8FAFB"></path>
            </g>
        </g>
    </g>
</svg>